<svg id="visual" viewBox="0 0 900 600" width="900" height="600" xmlns="http://www.w3.org/2000/svg" xmlns:xlink="http://www.w3.org/1999/xlink" version="1.1"><rect x="0" y="0" width="900" height="600" fill="#fff"></rect><defs><linearGradient id="grad1_0" x1="33.3%" y1="0%" x2="100%" y2="100%"><stop offset="20%" stop-color="#ffffff" stop-opacity="1"></stop><stop offset="80%" stop-color="#ffffff" stop-opacity="1"></stop></linearGradient></defs><defs><linearGradient id="grad2_0" x1="0%" y1="0%" x2="66.7%" y2="100%"><stop offset="20%" stop-color="#ffffff" stop-opacity="1"></stop><stop offset="80%" stop-color="#ffffff" stop-opacity="1"></stop></linearGradient></defs><g transform="translate(900, 0)"><path d="M0 432.7C-14.9 351 -29.8 269.3 -73.2 273.4C-116.7 277.4 -188.7 367.3 -210 363.7C-231.3 360.2 -202 263.1 -230.5 230.5C-259 197.9 -345.3 229.7 -374.7 216.3C-404.1 203 -376.5 144.5 -376.7 100.9C-376.9 57.4 -404.8 28.7 -432.7 0L0 0Z" fill="#FA6241"></path></g><g transform="translate(0, 600)"><path d="M0 -432.7C25.5 -378.5 51.1 -324.3 82.8 -309.1C114.6 -293.8 152.5 -317.5 179.5 -310.9C206.5 -304.3 222.5 -267.5 241.8 -241.8C261.2 -216.2 283.9 -201.7 317.8 -183.5C351.8 -165.3 396.9 -143.2 417.9 -112C438.9 -80.8 435.8 -40.4 432.7 0L0 0Z" fill="#FA6241"></path></g></svg>