<svg width="47" height="47" viewBox="0 0 47 47" fill="none" xmlns="http://www.w3.org/2000/svg">
<circle cx="23.5" cy="23.5" r="23.5" fill="#FA6241"/>
<rect width="25" height="23" transform="translate(9 11)" fill="#FA6241"/>
<path d="M29.1667 29.5636C29.8021 29.5636 30.4115 29.7949 30.8608 30.2067C31.3101 30.6184 31.5625 31.1768 31.5625 31.7591C31.5625 32.3414 31.3101 32.8998 30.8608 33.3115C30.4115 33.7232 29.8021 33.9545 29.1667 33.9545C27.837 33.9545 26.7708 32.9666 26.7708 31.7591C26.7708 30.5406 27.837 29.5636 29.1667 29.5636ZM10 12H13.9172L15.0432 14.1955H32.7604C33.0781 14.1955 33.3828 14.3111 33.6075 14.517C33.8321 14.7228 33.9583 15.002 33.9583 15.2932C33.9583 15.4798 33.8984 15.6664 33.8146 15.842L29.526 22.9443C29.1187 23.614 28.3281 24.075 27.4297 24.075H18.5052L17.4271 25.8643L17.3911 25.996C17.3911 26.0688 17.4227 26.1386 17.4789 26.1901C17.535 26.2415 17.6112 26.2705 17.6906 26.2705H31.5625V28.4659H17.1875C15.8578 28.4659 14.7917 27.478 14.7917 26.2705C14.7917 25.8863 14.8995 25.524 15.0792 25.2166L16.7083 22.5272L12.3958 14.1955H10V12ZM17.1875 29.5636C17.8229 29.5636 18.4323 29.7949 18.8816 30.2067C19.3309 30.6184 19.5833 31.1768 19.5833 31.7591C19.5833 32.3414 19.3309 32.8998 18.8816 33.3115C18.4323 33.7232 17.8229 33.9545 17.1875 33.9545C15.8578 33.9545 14.7917 32.9666 14.7917 31.7591C14.7917 30.5406 15.8578 29.5636 17.1875 29.5636ZM27.9688 21.8795L31.299 16.3909H16.1573L18.9844 21.8795H27.9688Z" fill="white"/>
</svg>
